<mxfile host="app.diagrams.net" modified="2023-10-10T05:50:56.883Z" agent="Mozilla/5.0 (Windows NT 10.0; Win64; x64) AppleWebKit/537.36 (KHTML, like Gecko) Chrome/117.0.0.0 Safari/537.36 Edg/117.0.2045.60" etag="Zh12ghgZZNvqMgh9jYb2" version="22.0.4" type="github">
  <diagram name="第 1 页" id="aTlyOCwOD0PLgAW2hjc_">
    <mxGraphModel dx="1574" dy="2218" grid="1" gridSize="10" guides="1" tooltips="1" connect="1" arrows="1" fold="1" page="1" pageScale="1" pageWidth="827" pageHeight="1169" math="0" shadow="0">
      <root>
        <mxCell id="0" />
        <mxCell id="1" parent="0" />
        <mxCell id="cHZLpDIXw8lnNvU6dz6q-45" style="edgeStyle=orthogonalEdgeStyle;rounded=0;orthogonalLoop=1;jettySize=auto;html=1;exitX=0.25;exitY=1;exitDx=0;exitDy=0;startArrow=block;startFill=0;endArrow=none;endFill=0;dashed=1;endSize=11;startSize=11;" edge="1" parent="1" source="cHZLpDIXw8lnNvU6dz6q-1" target="cHZLpDIXw8lnNvU6dz6q-31">
          <mxGeometry relative="1" as="geometry" />
        </mxCell>
        <mxCell id="cHZLpDIXw8lnNvU6dz6q-46" style="edgeStyle=orthogonalEdgeStyle;rounded=0;orthogonalLoop=1;jettySize=auto;html=1;exitX=0.5;exitY=1;exitDx=0;exitDy=0;entryX=0.75;entryY=0;entryDx=0;entryDy=0;startArrow=block;startFill=0;endArrow=none;endFill=0;dashed=1;endSize=11;startSize=11;" edge="1" parent="1" source="cHZLpDIXw8lnNvU6dz6q-1" target="cHZLpDIXw8lnNvU6dz6q-35">
          <mxGeometry relative="1" as="geometry" />
        </mxCell>
        <mxCell id="cHZLpDIXw8lnNvU6dz6q-47" style="edgeStyle=orthogonalEdgeStyle;rounded=0;orthogonalLoop=1;jettySize=auto;html=1;exitX=0.75;exitY=1;exitDx=0;exitDy=0;entryX=0.5;entryY=0;entryDx=0;entryDy=0;startArrow=block;startFill=0;endArrow=none;endFill=0;dashed=1;startSize=11;" edge="1" parent="1" source="cHZLpDIXw8lnNvU6dz6q-1" target="cHZLpDIXw8lnNvU6dz6q-38">
          <mxGeometry relative="1" as="geometry" />
        </mxCell>
        <mxCell id="cHZLpDIXw8lnNvU6dz6q-1" value="ShapeFactory63" style="swimlane;fontStyle=2;align=center;verticalAlign=top;childLayout=stackLayout;horizontal=1;startSize=26;horizontalStack=0;resizeParent=1;resizeLast=0;collapsible=1;marginBottom=0;rounded=0;shadow=0;strokeWidth=1;" vertex="1" parent="1">
          <mxGeometry x="-190" y="30" width="420" height="70" as="geometry">
            <mxRectangle x="230" y="140" width="160" height="26" as="alternateBounds" />
          </mxGeometry>
        </mxCell>
        <mxCell id="cHZLpDIXw8lnNvU6dz6q-2" value="" style="line;html=1;strokeWidth=1;align=left;verticalAlign=middle;spacingTop=-1;spacingLeft=3;spacingRight=3;rotatable=0;labelPosition=right;points=[];portConstraint=eastwest;" vertex="1" parent="cHZLpDIXw8lnNvU6dz6q-1">
          <mxGeometry y="26" width="420" height="8" as="geometry" />
        </mxCell>
        <mxCell id="cHZLpDIXw8lnNvU6dz6q-3" value="+ createShape() :interfaceShape63" style="text;align=left;verticalAlign=top;spacingLeft=4;spacingRight=4;overflow=hidden;rotatable=0;points=[[0,0.5],[1,0.5]];portConstraint=eastwest;" vertex="1" parent="cHZLpDIXw8lnNvU6dz6q-1">
          <mxGeometry y="34" width="420" height="16" as="geometry" />
        </mxCell>
        <mxCell id="cHZLpDIXw8lnNvU6dz6q-4" value="Square63" style="swimlane;fontStyle=1;align=center;verticalAlign=top;childLayout=stackLayout;horizontal=1;startSize=26;horizontalStack=0;resizeParent=1;resizeParentMax=0;resizeLast=0;collapsible=1;marginBottom=0;whiteSpace=wrap;html=1;" vertex="1" parent="1">
          <mxGeometry x="560" y="180" width="160" height="86" as="geometry" />
        </mxCell>
        <mxCell id="cHZLpDIXw8lnNvU6dz6q-5" value="" style="line;strokeWidth=1;fillColor=none;align=left;verticalAlign=middle;spacingTop=-1;spacingLeft=3;spacingRight=3;rotatable=0;labelPosition=right;points=[];portConstraint=eastwest;strokeColor=inherit;" vertex="1" parent="cHZLpDIXw8lnNvU6dz6q-4">
          <mxGeometry y="26" width="160" height="8" as="geometry" />
        </mxCell>
        <mxCell id="cHZLpDIXw8lnNvU6dz6q-6" value="+&amp;nbsp;draw&lt;span style=&quot;background-color: initial;&quot;&gt;() : void&lt;/span&gt;" style="text;strokeColor=none;fillColor=none;align=left;verticalAlign=top;spacingLeft=4;spacingRight=4;overflow=hidden;rotatable=0;points=[[0,0.5],[1,0.5]];portConstraint=eastwest;whiteSpace=wrap;html=1;" vertex="1" parent="cHZLpDIXw8lnNvU6dz6q-4">
          <mxGeometry y="34" width="160" height="26" as="geometry" />
        </mxCell>
        <mxCell id="cHZLpDIXw8lnNvU6dz6q-7" value="+&amp;nbsp;erase&lt;span style=&quot;background-color: initial;&quot;&gt;() : void&lt;/span&gt;" style="text;strokeColor=none;fillColor=none;align=left;verticalAlign=top;spacingLeft=4;spacingRight=4;overflow=hidden;rotatable=0;points=[[0,0.5],[1,0.5]];portConstraint=eastwest;whiteSpace=wrap;html=1;" vertex="1" parent="cHZLpDIXw8lnNvU6dz6q-4">
          <mxGeometry y="60" width="160" height="26" as="geometry" />
        </mxCell>
        <mxCell id="cHZLpDIXw8lnNvU6dz6q-8" value="Triangle63" style="swimlane;fontStyle=1;align=center;verticalAlign=top;childLayout=stackLayout;horizontal=1;startSize=26;horizontalStack=0;resizeParent=1;resizeParentMax=0;resizeLast=0;collapsible=1;marginBottom=0;whiteSpace=wrap;html=1;" vertex="1" parent="1">
          <mxGeometry x="380" y="180" width="160" height="86" as="geometry" />
        </mxCell>
        <mxCell id="cHZLpDIXw8lnNvU6dz6q-9" value="" style="line;strokeWidth=1;fillColor=none;align=left;verticalAlign=middle;spacingTop=-1;spacingLeft=3;spacingRight=3;rotatable=0;labelPosition=right;points=[];portConstraint=eastwest;strokeColor=inherit;" vertex="1" parent="cHZLpDIXw8lnNvU6dz6q-8">
          <mxGeometry y="26" width="160" height="8" as="geometry" />
        </mxCell>
        <mxCell id="cHZLpDIXw8lnNvU6dz6q-10" value="+&amp;nbsp;draw&lt;span style=&quot;background-color: initial;&quot;&gt;() : void&lt;/span&gt;" style="text;strokeColor=none;fillColor=none;align=left;verticalAlign=top;spacingLeft=4;spacingRight=4;overflow=hidden;rotatable=0;points=[[0,0.5],[1,0.5]];portConstraint=eastwest;whiteSpace=wrap;html=1;" vertex="1" parent="cHZLpDIXw8lnNvU6dz6q-8">
          <mxGeometry y="34" width="160" height="26" as="geometry" />
        </mxCell>
        <mxCell id="cHZLpDIXw8lnNvU6dz6q-11" value="+&amp;nbsp;erase&lt;span style=&quot;background-color: initial;&quot;&gt;() : void&lt;/span&gt;" style="text;strokeColor=none;fillColor=none;align=left;verticalAlign=top;spacingLeft=4;spacingRight=4;overflow=hidden;rotatable=0;points=[[0,0.5],[1,0.5]];portConstraint=eastwest;whiteSpace=wrap;html=1;" vertex="1" parent="cHZLpDIXw8lnNvU6dz6q-8">
          <mxGeometry y="60" width="160" height="26" as="geometry" />
        </mxCell>
        <mxCell id="cHZLpDIXw8lnNvU6dz6q-12" value="Main" style="swimlane;fontStyle=1;align=center;verticalAlign=top;childLayout=stackLayout;horizontal=1;startSize=26;horizontalStack=0;resizeParent=1;resizeParentMax=0;resizeLast=0;collapsible=1;marginBottom=0;whiteSpace=wrap;html=1;" vertex="1" parent="1">
          <mxGeometry x="270" y="-100" width="160" height="60" as="geometry" />
        </mxCell>
        <mxCell id="cHZLpDIXw8lnNvU6dz6q-13" value="" style="line;strokeWidth=1;fillColor=none;align=left;verticalAlign=middle;spacingTop=-1;spacingLeft=3;spacingRight=3;rotatable=0;labelPosition=right;points=[];portConstraint=eastwest;strokeColor=inherit;" vertex="1" parent="cHZLpDIXw8lnNvU6dz6q-12">
          <mxGeometry y="26" width="160" height="8" as="geometry" />
        </mxCell>
        <mxCell id="cHZLpDIXw8lnNvU6dz6q-14" value="+ main(args: String[]) : void" style="text;strokeColor=none;fillColor=none;align=left;verticalAlign=top;spacingLeft=4;spacingRight=4;overflow=hidden;rotatable=0;points=[[0,0.5],[1,0.5]];portConstraint=eastwest;whiteSpace=wrap;html=1;" vertex="1" parent="cHZLpDIXw8lnNvU6dz6q-12">
          <mxGeometry y="34" width="160" height="26" as="geometry" />
        </mxCell>
        <mxCell id="cHZLpDIXw8lnNvU6dz6q-19" value="Circle63" style="swimlane;fontStyle=1;align=center;verticalAlign=top;childLayout=stackLayout;horizontal=1;startSize=26;horizontalStack=0;resizeParent=1;resizeParentMax=0;resizeLast=0;collapsible=1;marginBottom=0;whiteSpace=wrap;html=1;" vertex="1" parent="1">
          <mxGeometry x="780" y="180" width="160" height="86" as="geometry" />
        </mxCell>
        <mxCell id="cHZLpDIXw8lnNvU6dz6q-20" value="" style="line;strokeWidth=1;fillColor=none;align=left;verticalAlign=middle;spacingTop=-1;spacingLeft=3;spacingRight=3;rotatable=0;labelPosition=right;points=[];portConstraint=eastwest;strokeColor=inherit;" vertex="1" parent="cHZLpDIXw8lnNvU6dz6q-19">
          <mxGeometry y="26" width="160" height="8" as="geometry" />
        </mxCell>
        <mxCell id="cHZLpDIXw8lnNvU6dz6q-21" value="+&amp;nbsp;draw&lt;span style=&quot;background-color: initial;&quot;&gt;() : void&lt;/span&gt;" style="text;strokeColor=none;fillColor=none;align=left;verticalAlign=top;spacingLeft=4;spacingRight=4;overflow=hidden;rotatable=0;points=[[0,0.5],[1,0.5]];portConstraint=eastwest;whiteSpace=wrap;html=1;" vertex="1" parent="cHZLpDIXw8lnNvU6dz6q-19">
          <mxGeometry y="34" width="160" height="26" as="geometry" />
        </mxCell>
        <mxCell id="cHZLpDIXw8lnNvU6dz6q-22" value="+ earse() : void" style="text;strokeColor=none;fillColor=none;align=left;verticalAlign=top;spacingLeft=4;spacingRight=4;overflow=hidden;rotatable=0;points=[[0,0.5],[1,0.5]];portConstraint=eastwest;whiteSpace=wrap;html=1;" vertex="1" parent="cHZLpDIXw8lnNvU6dz6q-19">
          <mxGeometry y="60" width="160" height="26" as="geometry" />
        </mxCell>
        <mxCell id="cHZLpDIXw8lnNvU6dz6q-26" value="interfaceShape63" style="swimlane;fontStyle=1;align=center;verticalAlign=top;childLayout=stackLayout;horizontal=1;startSize=26;horizontalStack=0;resizeParent=1;resizeParentMax=0;resizeLast=0;collapsible=1;marginBottom=0;whiteSpace=wrap;html=1;" vertex="1" parent="1">
          <mxGeometry x="560" y="30" width="160" height="86" as="geometry" />
        </mxCell>
        <mxCell id="cHZLpDIXw8lnNvU6dz6q-27" value="" style="line;strokeWidth=1;fillColor=none;align=left;verticalAlign=middle;spacingTop=-1;spacingLeft=3;spacingRight=3;rotatable=0;labelPosition=right;points=[];portConstraint=eastwest;strokeColor=inherit;" vertex="1" parent="cHZLpDIXw8lnNvU6dz6q-26">
          <mxGeometry y="26" width="160" height="8" as="geometry" />
        </mxCell>
        <mxCell id="cHZLpDIXw8lnNvU6dz6q-28" value="+&amp;nbsp;draw&lt;span style=&quot;background-color: initial;&quot;&gt;() : void&lt;/span&gt;" style="text;strokeColor=none;fillColor=none;align=left;verticalAlign=top;spacingLeft=4;spacingRight=4;overflow=hidden;rotatable=0;points=[[0,0.5],[1,0.5]];portConstraint=eastwest;whiteSpace=wrap;html=1;" vertex="1" parent="cHZLpDIXw8lnNvU6dz6q-26">
          <mxGeometry y="34" width="160" height="26" as="geometry" />
        </mxCell>
        <mxCell id="cHZLpDIXw8lnNvU6dz6q-29" value="+&amp;nbsp;erase&lt;span style=&quot;background-color: initial;&quot;&gt;() : void&lt;/span&gt;" style="text;strokeColor=none;fillColor=none;align=left;verticalAlign=top;spacingLeft=4;spacingRight=4;overflow=hidden;rotatable=0;points=[[0,0.5],[1,0.5]];portConstraint=eastwest;whiteSpace=wrap;html=1;" vertex="1" parent="cHZLpDIXw8lnNvU6dz6q-26">
          <mxGeometry y="60" width="160" height="26" as="geometry" />
        </mxCell>
        <mxCell id="cHZLpDIXw8lnNvU6dz6q-31" value="CircleFactory63" style="swimlane;fontStyle=1;align=center;verticalAlign=top;childLayout=stackLayout;horizontal=1;startSize=26;horizontalStack=0;resizeParent=1;resizeParentMax=0;resizeLast=0;collapsible=1;marginBottom=0;whiteSpace=wrap;html=1;" vertex="1" parent="1">
          <mxGeometry x="-370" y="160" width="286" height="60" as="geometry" />
        </mxCell>
        <mxCell id="cHZLpDIXw8lnNvU6dz6q-33" value="" style="line;strokeWidth=1;fillColor=none;align=left;verticalAlign=middle;spacingTop=-1;spacingLeft=3;spacingRight=3;rotatable=0;labelPosition=right;points=[];portConstraint=eastwest;strokeColor=inherit;" vertex="1" parent="cHZLpDIXw8lnNvU6dz6q-31">
          <mxGeometry y="26" width="286" height="8" as="geometry" />
        </mxCell>
        <mxCell id="cHZLpDIXw8lnNvU6dz6q-34" value="+ createShape() :interfaceShape63" style="text;strokeColor=none;fillColor=none;align=left;verticalAlign=top;spacingLeft=4;spacingRight=4;overflow=hidden;rotatable=0;points=[[0,0.5],[1,0.5]];portConstraint=eastwest;whiteSpace=wrap;html=1;" vertex="1" parent="cHZLpDIXw8lnNvU6dz6q-31">
          <mxGeometry y="34" width="286" height="26" as="geometry" />
        </mxCell>
        <mxCell id="cHZLpDIXw8lnNvU6dz6q-35" value="SquareFactory63" style="swimlane;fontStyle=1;align=center;verticalAlign=top;childLayout=stackLayout;horizontal=1;startSize=26;horizontalStack=0;resizeParent=1;resizeParentMax=0;resizeLast=0;collapsible=1;marginBottom=0;whiteSpace=wrap;html=1;" vertex="1" parent="1">
          <mxGeometry x="-160" y="250" width="286" height="60" as="geometry" />
        </mxCell>
        <mxCell id="cHZLpDIXw8lnNvU6dz6q-36" value="" style="line;strokeWidth=1;fillColor=none;align=left;verticalAlign=middle;spacingTop=-1;spacingLeft=3;spacingRight=3;rotatable=0;labelPosition=right;points=[];portConstraint=eastwest;strokeColor=inherit;" vertex="1" parent="cHZLpDIXw8lnNvU6dz6q-35">
          <mxGeometry y="26" width="286" height="8" as="geometry" />
        </mxCell>
        <mxCell id="cHZLpDIXw8lnNvU6dz6q-37" value="+ createShape() :interfaceShape63" style="text;strokeColor=none;fillColor=none;align=left;verticalAlign=top;spacingLeft=4;spacingRight=4;overflow=hidden;rotatable=0;points=[[0,0.5],[1,0.5]];portConstraint=eastwest;whiteSpace=wrap;html=1;" vertex="1" parent="cHZLpDIXw8lnNvU6dz6q-35">
          <mxGeometry y="34" width="286" height="26" as="geometry" />
        </mxCell>
        <mxCell id="cHZLpDIXw8lnNvU6dz6q-51" style="edgeStyle=orthogonalEdgeStyle;rounded=0;orthogonalLoop=1;jettySize=auto;html=1;exitX=0.5;exitY=1;exitDx=0;exitDy=0;entryX=0.483;entryY=0.967;entryDx=0;entryDy=0;entryPerimeter=0;endSize=11;endArrow=open;endFill=0;dashed=1;" edge="1" parent="1" source="cHZLpDIXw8lnNvU6dz6q-38" target="cHZLpDIXw8lnNvU6dz6q-11">
          <mxGeometry relative="1" as="geometry">
            <mxPoint x="450" y="369.99999999999955" as="targetPoint" />
          </mxGeometry>
        </mxCell>
        <mxCell id="cHZLpDIXw8lnNvU6dz6q-38" value="TriangleFactory63" style="swimlane;fontStyle=1;align=center;verticalAlign=top;childLayout=stackLayout;horizontal=1;startSize=26;horizontalStack=0;resizeParent=1;resizeParentMax=0;resizeLast=0;collapsible=1;marginBottom=0;whiteSpace=wrap;html=1;" vertex="1" parent="1">
          <mxGeometry x="40" y="330" width="286" height="60" as="geometry" />
        </mxCell>
        <mxCell id="cHZLpDIXw8lnNvU6dz6q-39" value="" style="line;strokeWidth=1;fillColor=none;align=left;verticalAlign=middle;spacingTop=-1;spacingLeft=3;spacingRight=3;rotatable=0;labelPosition=right;points=[];portConstraint=eastwest;strokeColor=inherit;" vertex="1" parent="cHZLpDIXw8lnNvU6dz6q-38">
          <mxGeometry y="26" width="286" height="8" as="geometry" />
        </mxCell>
        <mxCell id="cHZLpDIXw8lnNvU6dz6q-40" value="+ createShape() :interfaceShape63" style="text;strokeColor=none;fillColor=none;align=left;verticalAlign=top;spacingLeft=4;spacingRight=4;overflow=hidden;rotatable=0;points=[[0,0.5],[1,0.5]];portConstraint=eastwest;whiteSpace=wrap;html=1;" vertex="1" parent="cHZLpDIXw8lnNvU6dz6q-38">
          <mxGeometry y="34" width="286" height="26" as="geometry" />
        </mxCell>
        <mxCell id="cHZLpDIXw8lnNvU6dz6q-43" style="edgeStyle=orthogonalEdgeStyle;rounded=0;orthogonalLoop=1;jettySize=auto;html=1;exitX=1;exitY=0.5;exitDx=0;exitDy=0;entryX=0.75;entryY=0;entryDx=0;entryDy=0;dashed=1;endArrow=open;endFill=0;jumpSize=6;endSize=11;" edge="1" parent="1" source="cHZLpDIXw8lnNvU6dz6q-14" target="cHZLpDIXw8lnNvU6dz6q-26">
          <mxGeometry relative="1" as="geometry" />
        </mxCell>
        <mxCell id="cHZLpDIXw8lnNvU6dz6q-44" style="edgeStyle=orthogonalEdgeStyle;rounded=0;orthogonalLoop=1;jettySize=auto;html=1;exitX=0;exitY=0.5;exitDx=0;exitDy=0;entryX=0.535;entryY=-0.008;entryDx=0;entryDy=0;entryPerimeter=0;dashed=1;endSize=11;endArrow=open;endFill=0;" edge="1" parent="1" source="cHZLpDIXw8lnNvU6dz6q-14" target="cHZLpDIXw8lnNvU6dz6q-1">
          <mxGeometry relative="1" as="geometry" />
        </mxCell>
        <mxCell id="cHZLpDIXw8lnNvU6dz6q-49" style="edgeStyle=orthogonalEdgeStyle;rounded=0;orthogonalLoop=1;jettySize=auto;html=1;exitX=1;exitY=0.5;exitDx=0;exitDy=0;entryX=0.412;entryY=0.027;entryDx=0;entryDy=0;entryPerimeter=0;endArrow=none;endFill=0;startArrow=block;startFill=0;startSize=11;dashed=1;" edge="1" parent="1" source="cHZLpDIXw8lnNvU6dz6q-29" target="cHZLpDIXw8lnNvU6dz6q-19">
          <mxGeometry relative="1" as="geometry" />
        </mxCell>
        <mxCell id="cHZLpDIXw8lnNvU6dz6q-50" value="" style="endArrow=none;html=1;rounded=0;exitX=0.474;exitY=1.132;exitDx=0;exitDy=0;exitPerimeter=0;entryX=0.5;entryY=0;entryDx=0;entryDy=0;endFill=0;startArrow=block;startFill=0;startSize=11;dashed=1;" edge="1" parent="1" source="cHZLpDIXw8lnNvU6dz6q-29" target="cHZLpDIXw8lnNvU6dz6q-4">
          <mxGeometry width="50" height="50" relative="1" as="geometry">
            <mxPoint x="190" y="290" as="sourcePoint" />
            <mxPoint x="240" y="240" as="targetPoint" />
          </mxGeometry>
        </mxCell>
        <mxCell id="cHZLpDIXw8lnNvU6dz6q-52" style="edgeStyle=orthogonalEdgeStyle;rounded=0;orthogonalLoop=1;jettySize=auto;html=1;exitX=0;exitY=0.5;exitDx=0;exitDy=0;entryX=0.563;entryY=0.027;entryDx=0;entryDy=0;entryPerimeter=0;endArrow=none;endFill=0;startArrow=block;startFill=0;startSize=11;dashed=1;" edge="1" parent="1" source="cHZLpDIXw8lnNvU6dz6q-29" target="cHZLpDIXw8lnNvU6dz6q-8">
          <mxGeometry relative="1" as="geometry" />
        </mxCell>
        <mxCell id="cHZLpDIXw8lnNvU6dz6q-53" value="" style="endArrow=open;html=1;rounded=0;exitX=0.531;exitY=0.978;exitDx=0;exitDy=0;exitPerimeter=0;entryX=0.485;entryY=1.187;entryDx=0;entryDy=0;entryPerimeter=0;dashed=1;endFill=0;endSize=11;" edge="1" parent="1" source="cHZLpDIXw8lnNvU6dz6q-37" target="cHZLpDIXw8lnNvU6dz6q-7">
          <mxGeometry width="50" height="50" relative="1" as="geometry">
            <mxPoint x="250" y="290" as="sourcePoint" />
            <mxPoint x="300" y="240" as="targetPoint" />
            <Array as="points">
              <mxPoint x="-8" y="450" />
              <mxPoint x="638" y="450" />
            </Array>
          </mxGeometry>
        </mxCell>
        <mxCell id="cHZLpDIXw8lnNvU6dz6q-55" value="" style="endArrow=open;html=1;rounded=0;exitX=0.482;exitY=1.088;exitDx=0;exitDy=0;exitPerimeter=0;entryX=0.581;entryY=1.077;entryDx=0;entryDy=0;entryPerimeter=0;dashed=1;endFill=0;endSize=11;" edge="1" parent="1" source="cHZLpDIXw8lnNvU6dz6q-34" target="cHZLpDIXw8lnNvU6dz6q-22">
          <mxGeometry width="50" height="50" relative="1" as="geometry">
            <mxPoint x="10" y="290" as="sourcePoint" />
            <mxPoint x="60" y="240" as="targetPoint" />
            <Array as="points">
              <mxPoint x="-232" y="520" />
              <mxPoint x="870" y="520" />
            </Array>
          </mxGeometry>
        </mxCell>
      </root>
    </mxGraphModel>
  </diagram>
</mxfile>
